<svg width="13" height="13" viewBox="0 0 13 13" fill="none" xmlns="http://www.w3.org/2000/svg">
<path d="M12.4822 12.445C12.1947 12.73 11.7297 12.73 11.4422 12.445L6.53717 7.54003L1.63217 12.445C1.34717 12.73 0.879668 12.73 0.592168 12.445C0.307168 12.1575 0.307168 11.69 0.592168 11.405L5.49717 6.50003L0.592168 1.59503C0.307168 1.31003 0.307168 0.842527 0.592168 0.555027C0.737168 0.410027 0.927168 0.340027 1.11467 0.340027C1.30217 0.340027 1.48967 0.410027 1.63467 0.555027L6.53967 5.46003L11.4447 0.555027C11.7322 0.270027 12.1972 0.270027 12.4847 0.555027C12.6297 0.700027 12.6997 0.887527 12.6997 1.07753C12.6997 1.26753 12.6297 1.45503 12.4847 1.59753L7.57967 6.50253L12.4847 11.4075C12.7722 11.6925 12.7722 12.16 12.4847 12.4475L12.4822 12.445Z" fill="#222222"/>
</svg>
