<svg width="150" height="50" viewBox="0 0 150 50" fill="none" xmlns="http://www.w3.org/2000/svg">
<path d="M32.708 40.8553V48.8819H0V1.77842H32.109V9.80498H9.1549V21.1497H28.9915V28.58H9.1549V40.8553H32.708Z" fill="black"/>
<path d="M59.5097 21.8156C56.81 21.8156 54.4029 22.3365 52.2771 23.3757C50.1542 24.4149 48.6274 25.9082 47.6997 27.8529V48.8847H38.8094V14.4521H46.9697V21.5509C48.2067 19.1633 49.7781 17.2827 51.6809 15.912C53.581 14.5412 55.5953 13.789 57.7183 13.6581H58.8466C59.1113 13.6581 59.3314 13.6803 59.5097 13.7249V21.8183V21.8156Z" fill="black"/>
<path d="M64.4855 9.27563V0.452263H73.3757V9.27563H64.4855ZM64.4855 48.8819V14.1205H73.3757V48.8847H64.4855V48.8819Z" fill="black"/>
<path d="M105.153 48.8847L95.0038 34.0045L90.2926 38.6126V48.8847H81.4023V0.452263H90.2926V29.9229L104.292 14.4521H113.712L100.776 29.0676L114.642 48.8847H105.156H105.153Z" fill="black"/>
<path d="M115.704 38.7296C115.704 36.5007 116.334 34.5449 117.596 32.8622C118.858 31.1822 120.616 29.8811 122.87 28.9617C125.126 28.0423 127.715 27.5854 130.631 27.5854C132.091 27.5854 133.574 27.6969 135.075 27.917C136.58 28.1371 137.884 28.4909 138.99 28.9785V27.1285C138.99 24.9582 138.338 23.2866 137.031 22.1137C135.727 20.9407 133.791 20.3529 131.228 20.3529C129.325 20.3529 127.511 20.6844 125.787 21.3503C124.062 22.0134 122.248 22.9857 120.345 24.2701L117.493 18.4305C119.791 16.9261 122.148 15.8005 124.558 15.0483C126.968 14.2961 129.5 13.9199 132.155 13.9199C137.109 13.9199 140.968 15.1402 143.731 17.5836C146.495 20.0241 147.877 23.5123 147.877 28.0479V38.972C147.877 39.8886 148.041 40.5433 148.376 40.9333C148.707 41.3262 149.248 41.5658 150 41.6521V48.8847C149.203 49.0184 148.484 49.127 147.844 49.2162C147.203 49.3053 146.66 49.3499 146.219 49.3499C144.45 49.3499 143.11 48.9515 142.205 48.1547C141.299 47.3579 140.734 46.3856 140.514 45.235L140.313 43.4435C138.808 45.391 136.931 46.8926 134.674 47.9541C132.417 49.0156 130.119 49.5477 127.773 49.5477C125.427 49.5477 123.405 49.0769 121.569 48.138C119.733 47.1991 118.295 45.9092 117.256 44.271C116.217 42.6328 115.696 40.7857 115.696 38.7324L115.704 38.7296ZM137.332 40.4569C137.817 39.9387 138.215 39.4233 138.527 38.9051C138.836 38.3869 138.992 37.9133 138.992 37.4814V34.0518C137.931 33.62 136.78 33.2857 135.543 33.0488C134.303 32.812 133.133 32.6922 132.027 32.6922C129.726 32.6922 127.837 33.177 126.355 34.1465C124.873 35.1161 124.132 36.4004 124.132 37.9941C124.132 38.8577 124.374 39.6768 124.862 40.4513C125.349 41.2286 126.057 41.8527 126.985 42.3291C127.912 42.8055 129.018 43.0396 130.303 43.0396C131.587 43.0396 132.933 42.7916 134.217 42.2957C135.499 41.7998 136.538 41.1841 137.335 40.4513L137.332 40.4569Z" fill="black"/>
<path d="M106.608 10.3483C109.097 10.3483 111.115 8.33005 111.115 5.84046C111.115 3.35087 109.097 1.33266 106.608 1.33266C104.118 1.33266 102.1 3.35087 102.1 5.84046C102.1 8.33005 104.118 10.3483 106.608 10.3483Z" fill="#E30613"/>
<path d="M124.683 10.3483C127.173 10.3483 129.191 8.33005 129.191 5.84046C129.191 3.35087 127.173 1.33266 124.683 1.33266C122.194 1.33266 120.176 3.35087 120.176 5.84046C120.176 8.33005 122.194 10.3483 124.683 10.3483Z" fill="#E30613"/>
<path d="M142.759 10.3483C145.249 10.3483 147.267 8.33005 147.267 5.84046C147.267 3.35087 145.249 1.33266 142.759 1.33266C140.27 1.33266 138.251 3.35087 138.251 5.84046C138.251 8.33005 140.27 10.3483 142.759 10.3483Z" fill="#E30613"/>
</svg>
