<svg width="120" height="15" viewBox="0 0 120 15" fill="none" xmlns="http://www.w3.org/2000/svg">
<path d="M9.5484 11.7948V14.138H0V0.387158H9.37354V2.73034H2.67258V6.04219H8.46343V8.21132H2.67258V11.7948H9.5484Z" fill="black"/>
<path d="M17.3726 6.23653C16.5845 6.23653 15.8818 6.38863 15.2612 6.69199C14.6414 6.99536 14.1957 7.4313 13.9249 7.999V14.1388H11.3296V4.08692H13.7118V6.15927C14.0729 5.46225 14.5316 4.91326 15.0871 4.51311C15.6418 4.11295 16.2299 3.89335 16.8496 3.85513H17.179C17.2563 3.85513 17.3205 3.86163 17.3726 3.87465V6.23735V6.23653Z" fill="black"/>
<path d="M18.8251 2.57579V0H21.4204V2.57579H18.8251ZM18.8251 14.138V3.99016H21.4204V14.1388H18.8251V14.138Z" fill="black"/>
<path d="M30.6972 14.1388L27.7343 9.79484L26.359 11.1401V14.1388H23.7636V0H26.359V8.60332L30.4459 4.08694H33.1957L29.4195 8.35363L33.4674 14.1388H30.698H30.6972Z" fill="black"/>
<path d="M33.7773 11.1742C33.7773 10.5236 33.9611 9.95262 34.3295 9.46137C34.698 8.97094 35.2112 8.59111 35.8691 8.32272C36.5279 8.05432 37.2835 7.92094 38.1351 7.92094C38.5612 7.92094 38.9939 7.95347 39.4323 8.01772C39.8715 8.08197 40.2521 8.18527 40.575 8.3276V7.78755C40.575 7.15397 40.3847 6.66598 40.0033 6.32357C39.6226 5.98116 39.0574 5.80955 38.3091 5.80955C37.7536 5.80955 37.2241 5.90634 36.7207 6.10072C36.2172 6.29429 35.6878 6.57814 35.1323 6.95308L34.2994 5.24836C34.9704 4.80917 35.6585 4.48058 36.362 4.26099C37.0655 4.04139 37.8049 3.93159 38.5799 3.93159C40.026 3.93159 41.1525 4.28783 41.9593 5.00111C42.7661 5.71358 43.1695 6.73186 43.1695 8.05595V11.245C43.1695 11.5126 43.2175 11.7037 43.3151 11.8176C43.4119 11.9322 43.5697 12.0022 43.7893 12.0274V14.1388C43.5567 14.1778 43.3468 14.2095 43.1598 14.2356C42.9727 14.2616 42.8141 14.2746 42.6856 14.2746C42.1691 14.2746 41.7779 14.1583 41.5136 13.9257C41.2493 13.6931 41.0842 13.4092 41.0199 13.0733L40.9614 12.5504C40.5222 13.1189 39.974 13.5573 39.3152 13.8671C38.6564 14.177 37.9854 14.3324 37.3006 14.3324C36.6158 14.3324 36.0253 14.1949 35.4893 13.9208C34.9533 13.6467 34.5337 13.2702 34.2303 12.7919C33.9269 12.3137 33.7748 11.7745 33.7748 11.175L33.7773 11.1742ZM40.0911 11.6785C40.2326 11.5272 40.3489 11.3767 40.44 11.2255C40.5303 11.0742 40.5758 10.9359 40.5758 10.8099V9.80866C40.266 9.68259 39.9301 9.58499 39.5689 9.51586C39.207 9.44673 38.8654 9.41176 38.5425 9.41176C37.8707 9.41176 37.3193 9.55327 36.8866 9.83631C36.4539 10.1193 36.2376 10.4943 36.2376 10.9595C36.2376 11.2116 36.3083 11.4508 36.4507 11.6769C36.593 11.9038 36.7996 12.086 37.0704 12.225C37.3413 12.3641 37.6641 12.4324 38.0391 12.4324C38.414 12.4324 38.8069 12.36 39.1818 12.2153C39.5559 12.0705 39.8593 11.8908 40.0919 11.6769L40.0911 11.6785Z" fill="black"/>
<path d="M61.5693 10.5944C61.5693 11.3694 61.3692 12.0185 60.9691 12.5406C60.5689 13.0636 60.0297 13.4605 59.3522 13.7321C58.6747 14.003 57.9354 14.1388 57.1342 14.1388H50.491V0.387158H57.8508C58.4966 0.387158 59.0545 0.558769 59.5262 0.900365C59.9971 1.24277 60.3591 1.68197 60.6112 2.21713C60.8625 2.75311 60.9886 3.31186 60.9886 3.89258C60.9886 4.55137 60.8202 5.17763 60.4851 5.77135C60.1492 6.36508 59.6588 6.80427 59.013 7.08812C59.8003 7.32073 60.4233 7.7404 60.882 8.34714C61.3399 8.95469 61.5693 9.70295 61.5693 10.5935V10.5944ZM53.1636 2.67259V6.13979H56.7276C57.0244 6.13979 57.2953 6.06903 57.5409 5.9267C57.7857 5.78518 57.9834 5.5851 58.1314 5.32646C58.2794 5.06864 58.3542 4.75877 58.3542 4.39684C58.3542 4.03491 58.2867 3.74455 58.1509 3.48592C58.0151 3.22809 57.8345 3.02802 57.6084 2.88568C57.3823 2.74335 57.1269 2.67259 56.8431 2.67259H53.1628H53.1636ZM58.8772 10.0909C58.8772 9.74199 58.8064 9.42967 58.6641 9.15152C58.5218 8.87336 58.3315 8.65458 58.0923 8.49273C57.8532 8.33169 57.5791 8.25036 57.2693 8.25036H53.1636V11.8721H57.1342C57.4571 11.8721 57.7507 11.7916 58.0159 11.6297C58.2802 11.4679 58.4901 11.2523 58.6454 10.9807C58.8007 10.7098 58.878 10.4122 58.878 10.0901L58.8772 10.0909Z" fill="black"/>
<path d="M62.7112 11.1742C62.7112 10.5236 62.895 9.95262 63.2635 9.46137C63.6319 8.97094 64.1451 8.59111 64.8031 8.32272C65.4619 8.05432 66.2174 7.92094 67.069 7.92094C67.4952 7.92094 67.9279 7.95347 68.3662 8.01772C68.8054 8.08197 69.1861 8.18527 69.509 8.3276V7.78755C69.509 7.15397 69.3186 6.66598 68.9372 6.32357C68.5566 5.98116 67.9913 5.80955 67.243 5.80955C66.6875 5.80955 66.1581 5.90634 65.6546 6.10072C65.1512 6.29429 64.6217 6.57814 64.0662 6.95308L63.2334 5.24836C63.9044 4.80917 64.5924 4.48058 65.2959 4.26099C65.9995 4.04139 66.7388 3.93159 67.5139 3.93159C68.96 3.93159 70.0864 4.28783 70.8932 5.00111C71.7 5.71358 72.1035 6.73186 72.1035 8.05595V11.245C72.1035 11.5126 72.1514 11.7037 72.249 11.8176C72.3458 11.9322 72.5036 12.0022 72.7232 12.0274V14.1388C72.4906 14.1778 72.2808 14.2095 72.0937 14.2356C71.9066 14.2616 71.748 14.2746 71.6195 14.2746C71.1031 14.2746 70.7119 14.1583 70.4475 13.9257C70.1832 13.6931 70.0181 13.4092 69.9538 13.0733L69.8953 12.5504C69.4561 13.1189 68.9079 13.5573 68.2491 13.8671C67.5903 14.177 66.9193 14.3324 66.2345 14.3324C65.5497 14.3324 64.9592 14.1949 64.4233 13.9208C63.8873 13.6467 63.4676 13.2702 63.1642 12.7919C62.8609 12.3137 62.7088 11.7745 62.7088 11.175L62.7112 11.1742ZM69.025 11.6785C69.1665 11.5272 69.2829 11.3767 69.3739 11.2255C69.4642 11.0742 69.5098 10.9359 69.5098 10.8099V9.80866C69.1999 9.68259 68.864 9.58499 68.5029 9.51586C68.1409 9.44673 67.7994 9.41176 67.4765 9.41176C66.8047 9.41176 66.2532 9.55327 65.8205 9.83631C65.3879 10.1193 65.1715 10.4943 65.1715 10.9595C65.1715 11.2116 65.2423 11.4508 65.3846 11.6769C65.5269 11.9038 65.7335 12.086 66.0043 12.225C66.2752 12.3641 66.5981 12.4324 66.973 12.4324C67.348 12.4324 67.7408 12.36 68.1157 12.2153C68.4899 12.0705 68.7932 11.8908 69.0258 11.6769L69.025 11.6785Z" fill="black"/>
<path d="M73.848 12.5504L79.4453 5.90716H74.0806V4.08613H82.2342V5.67455L76.6759 12.3178H82.3318V14.1388H73.8488V12.5504H73.848Z" fill="black"/>
<path d="M83.3761 11.1742C83.3761 10.5236 83.5599 9.95262 83.9283 9.46137C84.2968 8.97094 84.81 8.59111 85.468 8.32272C86.1268 8.05432 86.8823 7.92094 87.7339 7.92094C88.1601 7.92094 88.5928 7.95347 89.0311 8.01772C89.4703 8.08197 89.851 8.18527 90.1738 8.3276V7.78755C90.1738 7.15397 89.9835 6.66598 89.6021 6.32357C89.2215 5.98116 88.6562 5.80955 87.9079 5.80955C87.3524 5.80955 86.823 5.90634 86.3195 6.10072C85.8161 6.29429 85.2866 6.57814 84.7311 6.95308L83.8983 5.24836C84.5692 4.80917 85.2573 4.48058 85.9608 4.26099C86.6644 4.04139 87.4037 3.93159 88.1788 3.93159C89.6249 3.93159 90.7513 4.28783 91.5581 5.00111C92.3649 5.71358 92.7683 6.73186 92.7683 8.05595V11.245C92.7683 11.5126 92.8163 11.7037 92.9139 11.8176C93.0107 11.9322 93.1685 12.0022 93.3881 12.0274V14.1388C93.1555 14.1778 92.9456 14.2095 92.7586 14.2356C92.5715 14.2616 92.4129 14.2746 92.2844 14.2746C91.768 14.2746 91.3767 14.1583 91.1124 13.9257C90.8481 13.6931 90.683 13.4092 90.6187 13.0733L90.5602 12.5504C90.121 13.1189 89.5728 13.5573 88.914 13.8671C88.2552 14.177 87.5842 14.3324 86.8994 14.3324C86.2146 14.3324 85.6241 14.1949 85.0881 13.9208C84.5522 13.6467 84.1325 13.2702 83.8291 12.7919C83.5257 12.3137 83.3737 11.7745 83.3737 11.175L83.3761 11.1742ZM89.6899 11.6785C89.8314 11.5272 89.9477 11.3767 90.0388 11.2255C90.1291 11.0742 90.1747 10.9359 90.1747 10.8099V9.80866C89.8648 9.68259 89.5289 9.58499 89.1678 9.51586C88.8058 9.44673 88.4642 9.41176 88.1414 9.41176C87.4695 9.41176 86.9181 9.55327 86.4854 9.83631C86.0527 10.1193 85.8364 10.4943 85.8364 10.9595C85.8364 11.2116 85.9072 11.4508 86.0495 11.6769C86.1918 11.9038 86.3984 12.086 86.6692 12.225C86.9401 12.3641 87.263 12.4324 87.6379 12.4324C88.0129 12.4324 88.4057 12.36 88.7806 12.2153C89.1547 12.0705 89.4581 11.8908 89.6907 11.6769L89.6899 11.6785Z" fill="black"/>
<path d="M101.233 6.23653C100.445 6.23653 99.7426 6.38863 99.122 6.69199C98.5023 6.99536 98.0566 7.4313 97.7857 7.999V14.1388H95.1904V4.08692H97.5727V6.15927C97.9338 5.46225 98.3925 4.91326 98.948 4.51311C99.5027 4.11295 100.091 3.89335 100.71 3.85513H101.04C101.117 3.85513 101.181 3.86163 101.233 3.87465V6.23735V6.23653Z" fill="black"/>
<path d="M108.767 13.6353C108.548 13.7256 108.283 13.8289 107.973 13.9452C107.664 14.0615 107.331 14.1551 106.976 14.2258C106.621 14.2966 106.263 14.3324 105.901 14.3324C105.423 14.3324 104.984 14.2494 104.584 14.0827C104.184 13.9167 103.864 13.6508 103.625 13.2864C103.386 12.9221 103.267 12.4454 103.267 11.8574V6.0812H101.931V4.08612H103.267V1.06138L105.863 1.57296V4.08694H107.994V6.08201H105.863V10.9758C105.876 11.3198 105.973 11.5679 106.153 11.7208C106.334 11.8737 106.56 11.9501 106.831 11.9501C107.102 11.9501 107.367 11.9046 107.624 11.8143C107.882 11.724 108.09 11.6468 108.244 11.5817L108.767 13.6345V13.6353Z" fill="black"/>
<path d="M114.693 14.3324C113.88 14.3324 113.144 14.1949 112.485 13.9208C111.826 13.6459 111.265 13.2693 110.8 12.7903C110.335 12.3112 109.977 11.7623 109.724 11.1433C109.473 10.5244 109.347 9.86966 109.347 9.17996C109.347 8.22187 109.563 7.34754 109.996 6.55537C110.429 5.76319 111.049 5.12799 111.855 4.64975C112.662 4.17071 113.615 3.93159 114.713 3.93159C115.811 3.93159 116.772 4.17152 117.559 4.65057C118.347 5.13043 118.95 5.76319 119.37 6.54968C119.79 7.33616 120 8.18364 120 9.09131C120 9.24421 119.993 9.40118 119.98 9.56141C119.967 9.72082 119.954 9.85258 119.941 9.95424H112.098C112.149 10.4585 112.301 10.9009 112.553 11.2783C112.805 11.6573 113.127 11.9444 113.522 12.1396C113.916 12.3348 114.338 12.4324 114.791 12.4324C115.307 12.4324 115.794 12.3064 116.253 12.0551C116.711 11.8029 117.024 11.4711 117.192 11.0579L119.419 11.6777C119.174 12.1941 118.822 12.6528 118.364 13.053C117.905 13.4532 117.366 13.7663 116.747 13.9924C116.127 14.2185 115.442 14.3315 114.694 14.3315L114.693 14.3324ZM112.04 8.30889H117.347C117.295 7.80382 117.15 7.36544 116.911 6.99294C116.672 6.62043 116.359 6.33089 115.972 6.12268C115.584 5.91447 115.152 5.81037 114.674 5.81037C114.197 5.81037 113.786 5.91447 113.406 6.12268C113.025 6.33089 112.715 6.62125 112.476 6.99294C112.237 7.36544 112.091 7.80382 112.04 8.30889Z" fill="black"/>
<path d="M31.1218 2.88894C31.8486 2.88894 32.4377 2.29977 32.4377 1.57299C32.4377 0.846205 31.8486 0.257031 31.1218 0.257031C30.395 0.257031 29.8058 0.846205 29.8058 1.57299C29.8058 2.29977 30.395 2.88894 31.1218 2.88894Z" fill="#E30613"/>
<path d="M36.3986 2.88894C37.1254 2.88894 37.7146 2.29977 37.7146 1.57299C37.7146 0.846205 37.1254 0.257031 36.3986 0.257031C35.6718 0.257031 35.0827 0.846205 35.0827 1.57299C35.0827 2.29977 35.6718 2.88894 36.3986 2.88894Z" fill="#E30613"/>
<path d="M41.6754 2.88894C42.4022 2.88894 42.9914 2.29977 42.9914 1.57299C42.9914 0.846205 42.4022 0.257031 41.6754 0.257031C40.9487 0.257031 40.3595 0.846205 40.3595 1.57299C40.3595 2.29977 40.9487 2.88894 41.6754 2.88894Z" fill="#E30613"/>
</svg>
