<?xml version="1.0" encoding="UTF-8"?><svg id="Capa_1" xmlns="http://www.w3.org/2000/svg" viewBox="0 0 100 100"><defs><style>.cls-1{fill:#fff;}</style></defs><path class="cls-1" d="m85.96,78.82l-.48-.83-19.1-33.09h-3.83l19.1,33.09.48.83,3.97,6.88H7.71l8.81-15.25h-3.83L1.96,89.02h89.88l-5.89-10.2ZM46.9,17.81l4.02,6.96.48.83,11.15,19.3h3.83l-13.06-22.62-.48-.83-5.93-10.27L12.68,70.44h3.83l30.39-52.64Z"/><path class="cls-1" d="m93.21,70.44h-.96l4.36,7.54H21.15l4.36-7.54h-.96l-4.83,8.37h78.33l-4.83-8.37ZM51.4,25.6l1.92-3.32,5.56-9.63,33.37,57.8h.96L58.88,10.98l-6.04,10.47-1.91,3.32-26.66,46.17h.96l26.18-45.34Z"/></svg>