<svg width="150" height="121" viewBox="0 0 150 121" fill="none" xmlns="http://www.w3.org/2000/svg">
<g clip-path="url(#clip0_165_631)" filter="url(#filter0_d_165_631)">
<path d="M122.94 25.9951C121.787 21.7112 118.409 18.3344 114.126 17.1809C106.301 15.0393 74.999 15.0393 74.999 15.0393C74.999 15.0393 43.698 15.0393 35.8726 17.0992C31.6719 18.252 28.212 21.7119 27.0592 25.9951C25 33.8197 25 50.0474 25 50.0474C25 50.0474 25 66.3567 27.0592 74.0997C28.2127 78.3829 31.5895 81.7604 35.8734 82.9139C43.7804 85.0555 74.9998 85.0555 74.9998 85.0555C74.9998 85.0555 106.301 85.0555 114.126 82.9956C118.41 81.8428 121.787 78.4653 122.94 74.1821C125 66.3567 125 50.1298 125 50.1298C125 50.1298 125.082 33.8197 122.94 25.9951Z" fill="#FF0000"/>
<path d="M65.0328 65.0391L91.0619 50.0474L65.0328 35.0557V65.0391Z" fill="white"/>
</g>
<defs>
<filter id="filter0_d_165_631" x="0" y="-15" width="150" height="150" filterUnits="userSpaceOnUse" color-interpolation-filters="sRGB">
<feFlood flood-opacity="0" result="BackgroundImageFix"/>
<feColorMatrix in="SourceAlpha" type="matrix" values="0 0 0 0 0 0 0 0 0 0 0 0 0 0 0 0 0 0 127 0" result="hardAlpha"/>
<feOffset dy="10"/>
<feGaussianBlur stdDeviation="12.5"/>
<feColorMatrix type="matrix" values="0 0 0 0 0.12549 0 0 0 0 0.12549 0 0 0 0 0.12549 0 0 0 0.2 0"/>
<feBlend mode="normal" in2="BackgroundImageFix" result="effect1_dropShadow_165_631"/>
<feBlend mode="normal" in="SourceGraphic" in2="effect1_dropShadow_165_631" result="shape"/>
</filter>
<clipPath id="clip0_165_631">
<rect width="100" height="100" fill="white" transform="translate(25)"/>
</clipPath>
</defs>
</svg>
