<?xml version="1.0" encoding="UTF-8" standalone="no"?>
<!DOCTYPE svg PUBLIC "-//W3C//DTD SVG 1.1//EN" "http://www.w3.org/Graphics/SVG/1.1/DTD/svg11.dtd">
<svg width="100%" height="100%" viewBox="0 0 16 16" version="1.1" xmlns="http://www.w3.org/2000/svg" xmlns:xlink="http://www.w3.org/1999/xlink" xml:space="preserve" xmlns:serif="http://www.serif.com/" style="fill-rule:evenodd;clip-rule:evenodd;stroke-linejoin:round;stroke-miterlimit:2;">
    <g>
        <clipPath id="_clip1">
            <rect x="0" y="0" width="16" height="16"/>
        </clipPath>
        <g clip-path="url(#_clip1)">
            <path d="M0.002,4.79C0.015,3.694 0.089,3.104 0.327,2.638C0.615,2.074 1.074,1.615 1.638,1.327C2.159,1.061 2.835,1 4.2,1L11.8,1C13.165,1 13.841,1.061 14.362,1.327C14.926,1.615 15.385,2.074 15.673,2.638C15.911,3.104 15.985,3.694 15.998,4.79L16.313,5.525L16,5.659L16,10.8C16,12.165 15.939,12.841 15.673,13.362C15.385,13.926 14.926,14.385 14.362,14.673C13.841,14.939 13.165,15 11.8,15L4.2,15C2.835,15 2.159,14.939 1.638,14.673C1.074,14.385 0.615,13.926 0.327,13.362C0.061,12.841 0,12.165 0,10.8L0,5.659L-0.313,5.525L0.002,4.79ZM14,6.517L8.394,8.919C8.142,9.027 7.858,9.027 7.606,8.919L2,6.517L2,10.8C2,11.676 1.938,12.119 2.109,12.454C2.205,12.642 2.358,12.795 2.546,12.891C2.881,13.061 3.324,13 4.2,13L11.8,13C12.676,13 13.119,13.061 13.454,12.891C13.642,12.795 13.795,12.642 13.891,12.454C14.061,12.119 14,11.676 14,10.8L14,6.517ZM1.989,4.336L8,6.912L14.011,4.336C14.012,3.987 13.993,3.747 13.891,3.546C13.795,3.358 13.642,3.205 13.454,3.109C13.119,2.938 12.676,3 11.8,3L4.2,3C3.324,3 2.881,2.938 2.546,3.109C2.358,3.205 2.205,3.358 2.109,3.546C2.007,3.747 1.988,3.987 1.989,4.336Z"/>
        </g>
    </g>
</svg>
