<svg width="16" height="16" viewBox="0 0 16 16" fill="none" xmlns="http://www.w3.org/2000/svg">
<path d="M5.03046 5.80627C6.03176 8.55702 7.06837 9.65454 9.70547 10.8235L8.56262 12.4399C5.5344 10.9799 4.0261 8.51885 3.31574 6.59828L5.03046 5.80627Z" fill="#202020"/>
<path d="M5.87047 2.00867C6.40589 2.00656 6.813 2.45522 6.7765 2.96325C6.71906 3.76271 6.78021 4.33952 6.94486 5.05449C7.03531 5.44722 6.83069 5.8461 6.50553 6.10302C6.06726 6.44931 5.73243 6.89055 5.46631 7.27039C5.09746 7.79686 3.82811 7.75904 3.54739 7.1855C2.97048 6.00678 2.5795 3.83518 3.42197 2.36801C3.5543 2.13755 3.82075 2.01674 4.09684 2.01565L5.87047 2.00867Z" fill="#202020"/>
<path d="M13.9979 10.7312C14.0645 10.2259 13.6451 9.78761 13.1104 9.76098C12.269 9.71906 11.6743 9.59196 10.9478 9.35052C10.5487 9.2179 10.1077 9.36311 9.80044 9.63922C9.38626 10.0114 8.88541 10.2744 8.45691 10.48C7.863 10.7649 7.74983 11.9679 8.31476 12.302C9.47577 12.9884 11.6956 13.6187 13.3284 12.9997C13.5848 12.9025 13.743 12.6655 13.7773 12.4049L13.9979 10.7312Z" fill="#202020"/>
</svg>
