<?xml version="1.0" encoding="utf-8"?>
<!-- Generator: Adobe Illustrator 27.0.0, SVG Export Plug-In . SVG Version: 6.00 Build 0)  -->
<svg version="1.1" id="Capa_1" xmlns="http://www.w3.org/2000/svg" xmlns:xlink="http://www.w3.org/1999/xlink" x="0px" y="0px"
	 viewBox="0 0 88 113.88" style="enable-background:new 0 0 88 113.88;" xml:space="preserve">
<style type="text/css">
	.st0{opacity:0.2;}
	.st1{fill:#FFFFFF;}
</style>
<g id="pZpZcP.tif_00000147935688517662528190000001482502156207275451_" class="st0">
	<g>
		<path class="st1" d="M77.31,91.51c-0.01,0.1-0.04,0.2-0.04,0.3c-0.02,0.54-0.2,1.03-0.46,1.48c-0.05,0.09-0.19,0.16-0.3,0.18
			c-2.33,0.44-4.66,0.89-7,1.29c-1.82,0.31-3.65,0.55-5.47,0.78c-1.93,0.24-3.87,0.45-5.8,0.64c-1.75,0.17-3.51,0.29-5.26,0.4
			c-1.79,0.11-3.59,0.23-5.39,0.27c-2.8,0.06-5.6,0.08-8.4,0.09c-2.22,0-4.44-0.03-6.66-0.09c-1.71-0.05-3.42-0.15-5.13-0.25
			c-2.08-0.13-4.16-0.28-6.24-0.45c-1.65-0.14-3.3-0.31-4.95-0.49c-1.19-0.13-2.37-0.3-3.56-0.43c-1.31-0.14-1.78-0.92-1.92-2.02
			c-0.12-0.99,0.08-1.96,0.26-2.93c0.05-0.25,0.1-0.51,0.13-0.76c0.04-0.4,0.18-0.75,0.45-1.03c0.48-0.49,0.97-0.97,1.47-1.44
			c0.37-0.35,0.84-0.47,1.32-0.54c1.49-0.23,2.89-0.73,4.25-1.36c1.1-0.51,2.26-0.85,3.41-1.23c0.76-0.25,1.48-0.57,2.24-0.83
			c0.76-0.26,1.54-0.47,2.3-0.71c0.22-0.07,0.45-0.15,0.65-0.26c0.63-0.36,0.83-0.94,0.58-1.62c-0.07-0.18-0.17-0.35-0.25-0.53
			c-0.38-0.89-0.77-1.77-1.13-2.67c-0.25-0.63-0.52-1.24-0.95-1.76c-0.55-0.67-0.78-1.47-0.77-2.31c0.01-1.17,0.04-2.35,0.15-3.51
			c0.12-1.34,0.25-2.68,0.51-4c0.44-2.14,0.58-4.3,0.83-6.46c0.14-1.21,0.28-2.42,0.75-3.57c0.1-0.24,0.23-0.48,0.37-0.7
			c0.25-0.39,0.59-0.66,1.04-0.8c2.23-0.65,4.3-1.68,6.39-2.66c1.28-0.61,2.59-1.18,3.89-1.73c0.98-0.42,1.49-1.28,1.32-2.42
			c-0.08-0.57-0.2-1.15-0.4-1.68c-0.4-1.05-0.86-2.07-1.3-3.11c-0.05-0.12-0.14-0.21-0.27-0.3c0.02,0.34,0.04,0.69,0.05,1.03
			c0.04,1.27,0.13,2.55-0.02,3.82c-0.02,0.19-0.06,0.39-0.12,0.57c-0.09,0.27-0.21,0.3-0.38,0.08c-0.23-0.29-0.4-0.62-0.4-1.01
			c0-0.77-0.01-1.55,0.01-2.32c0.02-0.88-0.13-1.74-0.38-2.58c-0.36-1.23-0.66-2.47-0.99-3.71c-0.09-0.32-0.21-0.64-0.3-0.96
			c-0.17-0.6,0.06-0.98,0.66-1.11c0.23-0.05,0.32-0.18,0.34-0.38c0.02-0.37,0.04-0.73,0.05-1.1c0.02-1.16,0-2.32,0.05-3.47
			c0.06-1.53,0.79-2.68,2.1-3.48c0.21-0.13,0.41-0.25,0.63-0.37c0.72-0.38,1.17-0.98,1.51-1.7c0.66-1.41,1.03-2.91,1.45-4.4
			c0.36-1.3,0.72-2.6,1.09-3.9c0.03-0.12,0.08-0.23,0.18-0.34c0.06,0.15,0.11,0.3,0.17,0.45c0.72,2.08,1.22,4.21,1.76,6.34
			c0.17,0.67,0.39,1.33,0.64,1.98c0.24,0.63,0.69,1.09,1.28,1.41c0.89,0.48,1.7,1.04,2.32,1.87c0.58,0.78,0.93,1.64,0.91,2.63
			c-0.02,1.03-0.04,2.06-0.06,3.1c-0.01,0.44-0.01,0.88-0.01,1.31c0,0.17,0.07,0.27,0.28,0.23c0.32-0.06,0.52,0.1,0.49,0.42
			c-0.05,0.57-0.13,1.15-0.26,1.71c-0.23,1-0.5,2-0.76,3c-0.36,1.35-0.39,2.73-0.48,4.11c-0.05,0.76-0.12,1.51-0.19,2.27
			c-0.01,0.1-0.08,0.19-0.12,0.29c-0.11-0.05-0.24-0.07-0.32-0.15c-0.29-0.3-0.39-0.69-0.44-1.09c-0.08-0.65-0.12-1.31-0.19-1.96
			c-0.01-0.06-0.02-0.12-0.04-0.18c-0.04,0.01-0.07,0.01-0.08,0.03c-0.83,1.26-1.09,2.88-0.41,4.25c0.35,0.71,0.96,1.07,1.69,1.32
			c1.58,0.53,3.21,0.86,4.83,1.23c0.8,0.18,1.63,0.37,2.37,0.72c1.88,0.88,3.04,2.4,3.35,4.45c0.4,2.59,0.72,5.18,1.05,7.78
			c0.25,1.98,0.48,3.96,0.68,5.94c0.14,1.35,0.21,2.7,0.05,4.05c-0.08,0.67-0.33,1.33-0.53,1.99c-0.2,0.67-0.45,1.33-0.63,2.01
			c-0.07,0.27-0.06,0.6,0,0.88c0.19,0.94,0.53,1.83,1.2,2.55c0.61,0.65,1.39,0.97,2.23,1.16c0.86,0.19,1.74,0.29,2.6,0.48
			c0.75,0.17,1.49,0.41,2.24,0.6c1.25,0.32,2.5,0.6,3.74,0.95c0.95,0.26,1.83,0.68,2.6,1.3c1.01,0.82,1.52,1.92,1.71,3.18
			c0.06,0.42,0.1,0.85,0.14,1.28C77.31,91.04,77.31,91.28,77.31,91.51z M32.86,63.53c-0.02,0.01-0.05,0.01-0.07,0.02
			c-0.03,0.12-0.08,0.24-0.1,0.36c-0.5,2.42-1,4.83-1.5,7.25c-0.11,0.51-0.17,1.03-0.3,1.54c-0.19,0.74-0.01,1.41,0.38,2.03
			c0.8,1.27,1.6,2.53,2.41,3.8c0.07,0.11,0.15,0.22,0.23,0.32c0.2,0.24,0.31,0.23,0.43-0.05c0.09-0.22,0.18-0.45,0.22-0.69
			c0.35-1.75,0.71-3.49,1.01-5.24c0.17-1,0.23-2.04-0.1-3.02c-0.63-1.89-1.32-3.77-2.18-5.57C33.17,64.02,33,63.78,32.86,63.53z"/>
	</g>
</g>
</svg>
