<?xml version="1.0" encoding="utf-8"?>
<!-- Generator: Adobe Illustrator 27.0.0, SVG Export Plug-In . SVG Version: 6.00 Build 0)  -->
<svg version="1.1" id="Capa_1" xmlns="http://www.w3.org/2000/svg" xmlns:xlink="http://www.w3.org/1999/xlink" x="0px" y="0px"
	 viewBox="0 0 88 113.88" style="enable-background:new 0 0 88 113.88;" xml:space="preserve">
<style type="text/css">
	.st0{opacity:0.2;}
	.st1{fill:#FFFFFF;}
</style>
<g id="Kq0ElJ_00000011714844172776772130000001623162374370578107_" class="st0">
	<g>
		<path class="st1" d="M62.15,23.55c-1.51,0.2-3.04,0.66-4.53,0.56c-2.53-0.18-5.02-0.79-7.55-1.08c-1.26-0.15-1.95,0.38-1.91,1.92
			c0.06,2.39-0.21,4.79-0.34,7.27c0.95,0.43,1.93,0.88,3.38,1.54c-4.78,0-9.03,0-13.28,0c-0.03-0.11-0.07-0.22-0.1-0.32
			c0.81-0.4,1.62-0.79,2.09-1.03c-0.36-2.98-0.61-5.76-1.11-8.49c-0.09-0.48-1.29-1.16-1.87-1.07c-1.42,0.23-2.77,0.84-4.15,1.33
			c-0.48,0.17-0.93,0.43-1.39,0.65c-1.6,0.77-3.52,1.37-4.48-0.44c-1.07-2.02,0.96-2.94,2.39-3.74c5.88-3.29,12.24-4.18,18.85-3.48
			c2.31,0.24,4.59,0.81,6.89,1.22c2.8,0.5,5.28,1.56,7.1,3.85C62.15,22.67,62.15,23.11,62.15,23.55z M46.68,27.46
			c-0.09-3.44-0.52-3.76-3.3-3.58c-2.04,0.13-2.11,1.53-2.11,2.87c-0.01,1.69,1.39,1.06,2.28,1.05
			C44.54,27.78,45.53,27.59,46.68,27.46z"/>
		<path class="st1" d="M39.45,94.48c-1.07,2.3-2.1,2.94-3.49,2.14c-1.03-0.59-1.38-1.31-0.28-2.19c0.63-0.5,1.28-0.97,1.88-1.51
			c1.4-1.26,1.85-2.69,1.51-4.69c-0.76-4.44-1.16-8.95-1.75-13.42c-0.24-1.87-0.6-3.73-0.86-5.6c-0.18-1.3-0.6-2.67-0.35-3.9
			c0.81-4.11-0.83-7.47-2.63-10.93c-1.7-3.27-3.56-6.65-1.96-10.59c0.05-0.12,0.15-0.23,0.29-0.44c1.88,0.95,3.5,1.75,3.27,4.53
			c-0.16,1.85,0.77,3.8,1.65,5.7c0.15-0.79,0.3-1.59,0.41-2.2c4.41,1.32,8.78,2.16,13.38,0.49c0.15,0.69,0.29,1.31,0.43,1.95
			c3.18-2.37,4.15-5.21,2.78-8.55c1.05-0.76,2.15-1.55,3.25-2.34c2.36,3.36,2.43,5.13,0.33,8.43c-0.63,0.98-1.29,1.96-2.04,2.84
			c-2.37,2.78-3.69,5.8-3.13,9.61c0.23,1.58-0.46,3.28-0.63,4.94c-0.26,2.38-0.46,4.76-0.63,7.15c-0.24,3.54-0.12,7.13-0.74,10.59
			c-0.57,3.17-0.38,5.75,2.26,7.85c0.58,0.46,0.99,1.14,1.55,1.8c-3.61,1.21-6.2,0.28-7.53-2.59c-0.22-0.48-0.08-1.13-0.1-1.7
			c-0.21-5.36-0.38-10.73-0.66-16.09c-0.16-3.05-0.53-6.09-1.13-9.29c-0.25,0.68-0.59,1.33-0.74,2.03
			c-1.6,7.31-2.4,14.66-1.09,22.12c0.11,0.63-0.27,1.55-0.74,2.04c-0.72,0.76-1.71,1.27-2.58,1.89c0.37-0.51,0.84-0.97,1.09-1.53
			c0.44-0.96,0.98-1.96,1.04-2.98c0.12-1.85-0.08-3.73-0.11-5.6c-0.03-1.42-0.01-2.85-0.01-4.43c-1.19,0.06-2.16,0.11-3.25,0.17
			c0.63,2.91,1.07,5.55,1.78,8.13c0.89,3.27-1.93,4.82-3.26,7.06c0.14,0.15,0.27,0.3,0.41,0.45C37.86,95.37,38.66,94.92,39.45,94.48
			z M37.32,61.03c-0.35,2.79-0.35,2.79,2.12,2.84c1.38,0.02,2.76,0.02,4.14,0.07c2.5,0.09,5,0.22,7.69,0.34
			c-0.34-1.43,0.43-3.17-1.65-3.21C45.56,60.96,41.51,61.03,37.32,61.03z M47.73,79.94c-0.19,4.06-0.34,7.81-0.55,11.55
			c-0.15,2.59,2.63,4.81,5.17,3.96c-1.99-2.01-3.66-4-2.93-7.22c0.6-2.65,0.6-5.44,0.87-8.29C49.33,79.94,48.34,79.94,47.73,79.94z
			 M43.39,68.08c-2.26,0-4.4,0-6.53,0c-0.12,0.14-0.24,0.27-0.37,0.41c0.67,0.53,1.38,1.55,1.99,1.49
			C40.14,69.83,42.4,71.05,43.39,68.08z M51.1,68.13c-1.97,0-3.7,0-5.43,0c-0.12,0.17-0.24,0.34-0.36,0.51
			c0.5,0.48,1.07,1.41,1.5,1.35C48.27,69.81,50.43,71.22,51.1,68.13z"/>
		<path class="st1" d="M34.96,34.51c1.77,2.99,4.45,2.6,6.61,2.86c3.7,0.45,7.33,0.07,10.83-2.16c1.15,1.74,2.58,3.91,3.81,5.76
			c-1.39,0.53-2.72,1.04-4.15,1.58c-0.28-0.36-0.67-0.87-1.21-1.57c-0.24,0.67-0.42,1.18-0.66,1.86c-3.85,0-7.77,0.04-11.69-0.04
			c-0.75-0.01-1.49-0.49-2.64-0.89c-1.13,0.97-1.76-1.53-3.73-1.15C33.21,38.39,34.09,36.45,34.96,34.51z"/>
		<path class="st1" d="M50.23,49.84c-4.28,0-8.6,0-13.05,0c0-1.73,0-2.94,0-4.28c4.3,0,8.6,0,13.05,0
			C50.23,47.2,50.23,48.76,50.23,49.84z"/>
	</g>
</g>
</svg>
