<?xml version="1.0" encoding="UTF-8" standalone="no"?>
<!DOCTYPE svg PUBLIC "-//W3C//DTD SVG 1.1//EN" "http://www.w3.org/Graphics/SVG/1.1/DTD/svg11.dtd">
<svg width="100%" height="100%" viewBox="0 0 17 16" version="1.1" xmlns="http://www.w3.org/2000/svg" xmlns:xlink="http://www.w3.org/1999/xlink" xml:space="preserve" xmlns:serif="http://www.serif.com/" style="fill-rule:evenodd;clip-rule:evenodd;stroke-linejoin:round;stroke-miterlimit:2;">
    <path d="M10.5,6C10.5,7.105 9.605,8 8.5,8C7.395,8 6.5,7.105 6.5,6C6.5,4.895 7.395,4 8.5,4C9.605,4 10.5,4.895 10.5,6Z"/>
    <path d="M2.5,6.419C2.5,2.652 5.024,0 8.5,0C11.976,0 14.5,2.652 14.5,6.419C14.5,9.983 11.776,13.27 9.104,15.297C8.747,15.568 8.253,15.568 7.896,15.297C5.224,13.27 2.5,9.983 2.5,6.419ZM4.5,6.419C4.5,9.108 6.475,11.54 8.5,13.223C10.525,11.54 12.5,9.108 12.5,6.419C12.5,3.864 10.858,2 8.5,2C6.142,2 4.5,3.864 4.5,6.419Z"/>
</svg>
