<svg width="34" height="35" viewBox="0 0 34 35" fill="none" xmlns="http://www.w3.org/2000/svg">
<rect y="0.976318" width="34" height="34" rx="10" fill="#202020"/>
<g clip-path="url(#clip0_21_2844)">
<path d="M28.9765 13.0324C28.9203 11.7572 28.7141 10.8805 28.4187 10.1208C28.1139 9.31443 27.6451 8.59251 27.0308 7.99232C26.4307 7.38283 25.704 6.90922 24.9069 6.60924C24.1429 6.31387 23.2708 6.10764 21.9955 6.05142C20.7108 5.99041 20.3029 5.97632 17.0445 5.97632C13.7861 5.97632 13.3782 5.99041 12.0982 6.04663C10.823 6.10285 9.9463 6.30927 9.18685 6.6045C8.38029 6.90922 7.65832 7.37809 7.05818 7.99232C6.44869 8.59251 5.97526 9.31918 5.6751 10.1162C5.37968 10.8805 5.17345 11.7524 5.11723 13.0276C5.05627 14.3123 5.04218 14.7202 5.04218 17.9787C5.04218 21.2371 5.05627 21.645 5.11248 22.9249C5.1687 24.2002 5.37512 25.0768 5.6705 25.8365C5.97526 26.6429 6.44869 27.3648 7.05818 27.965C7.65832 28.5745 8.38503 29.0481 9.18206 29.3481C9.9463 29.6435 10.8182 29.8497 12.0937 29.9059C13.3734 29.9623 13.7815 29.9762 17.0399 29.9762C20.2984 29.9762 20.7062 29.9623 21.9862 29.9059C23.2614 29.8497 24.1381 29.6435 24.8976 29.3481C26.5105 28.7245 27.7857 27.4493 28.4093 25.8365C28.7046 25.0723 28.9109 24.2002 28.9672 22.9249C29.0234 21.645 29.0375 21.2371 29.0375 17.9787C29.0375 14.7202 29.0327 14.3123 28.9765 13.0324ZM26.8152 22.8312C26.7636 24.0033 26.5667 24.6362 26.4026 25.0581C25.9994 26.1037 25.1696 26.9335 24.124 27.3368C23.7021 27.5009 23.0645 27.6978 21.897 27.7493C20.6311 27.8057 20.2515 27.8196 17.0493 27.8196C13.847 27.8196 13.4626 27.8057 12.2013 27.7493C11.0292 27.6978 10.3963 27.5009 9.97434 27.3368C9.45404 27.1445 8.98043 26.8398 8.59601 26.4413C8.19749 26.0521 7.89277 25.5832 7.70045 25.0629C7.53634 24.641 7.33946 24.0033 7.28803 22.8359C7.23162 21.5701 7.21767 21.1902 7.21767 17.988C7.21767 14.7858 7.23162 14.4014 7.28803 13.1402C7.33946 11.9681 7.53634 11.3352 7.70045 10.9133C7.89277 10.3928 8.19749 9.91936 8.6008 9.53475C8.98978 9.13624 9.4586 8.83147 9.97908 8.63938C10.401 8.47528 11.0387 8.27839 12.2061 8.22678C13.472 8.17051 13.8518 8.15642 17.0538 8.15642C20.2608 8.15642 20.6405 8.17051 21.9018 8.22678C23.0739 8.27839 23.7068 8.47528 24.1287 8.63938C24.6491 8.83147 25.1227 9.13624 25.5071 9.53475C25.9056 9.92392 26.2104 10.3928 26.4026 10.9133C26.5667 11.3352 26.7636 11.9727 26.8152 13.1402C26.8715 14.4061 26.8856 14.7858 26.8856 17.988C26.8856 21.1902 26.8715 21.5653 26.8152 22.8312Z" fill="#FFFAF0"/>
<path d="M17.0445 11.8134C13.6408 11.8134 10.8792 14.5748 10.8792 17.9787C10.8792 21.3825 13.6408 24.1439 17.0445 24.1439C20.4483 24.1439 23.2097 21.3825 23.2097 17.9787C23.2097 14.5748 20.4483 11.8134 17.0445 11.8134ZM17.0445 21.9779C14.8364 21.9779 13.0453 20.187 13.0453 17.9787C13.0453 15.7703 14.8364 13.9794 17.0445 13.9794C19.2528 13.9794 21.0437 15.7703 21.0437 17.9787C21.0437 20.187 19.2528 21.9779 17.0445 21.9779Z" fill="#FFFAF0"/>
<path d="M24.893 11.5696C24.893 12.3645 24.2486 13.0089 23.4535 13.0089C22.6587 13.0089 22.0142 12.3645 22.0142 11.5696C22.0142 10.7746 22.6587 10.1303 23.4535 10.1303C24.2486 10.1303 24.893 10.7746 24.893 11.5696Z" fill="#FFFAF0"/>
</g>
<defs>
<clipPath id="clip0_21_2844">
<rect width="24" height="24" fill="white" transform="translate(5 5.97632)"/>
</clipPath>
</defs>
</svg>
