<svg width="34" height="35" viewBox="0 0 34 35" fill="none" xmlns="http://www.w3.org/2000/svg">
<rect y="0.976318" width="34" height="34" rx="10" fill="#202020"/>
<g clip-path="url(#clip0_21_2849)">
<path fill-rule="evenodd" clip-rule="evenodd" d="M24.9589 9.98438C22.8539 7.87695 20.0545 6.71584 17.0721 6.71457C10.9266 6.71457 5.9251 11.716 5.92264 17.8631C5.92179 19.8281 6.43515 21.7463 7.41088 23.4371L5.8291 29.2146L11.7396 27.6641C13.3682 28.5525 15.2017 29.0207 17.0676 29.0212H17.0723C23.217 29.0212 28.2191 24.0194 28.2215 17.872C28.2227 14.8928 27.064 12.0917 24.9589 9.98438ZM17.0721 27.1383H17.0683C15.4055 27.1376 13.7747 26.6908 12.3517 25.8466L12.0135 25.6457L8.50605 26.5658L9.44223 23.1462L9.22183 22.7956C8.29417 21.3201 7.80432 19.6147 7.80512 17.8638C7.80706 12.7544 11.9643 8.59765 17.0758 8.59765C19.551 8.59846 21.8778 9.5636 23.6274 11.3152C25.377 13.0669 26.3399 15.3951 26.3391 17.8713C26.3369 22.9811 22.1799 27.1383 17.0721 27.1383ZM22.1552 20.1978C21.8767 20.0583 20.507 19.3846 20.2516 19.2914C19.9964 19.1985 19.8104 19.1522 19.6249 19.431C19.4391 19.7098 18.9053 20.3373 18.7427 20.5232C18.5801 20.7091 18.4178 20.7325 18.1392 20.5929C17.8605 20.4535 16.9629 20.1592 15.8988 19.2102C15.0707 18.4715 14.5116 17.5592 14.349 17.2804C14.1867 17.0013 14.3476 16.8651 14.4712 16.7119C14.7728 16.3374 15.0748 15.9448 15.1676 15.7589C15.2606 15.573 15.2141 15.4103 15.1443 15.2709C15.0748 15.1315 14.5177 13.7603 14.2855 13.2023C14.0592 12.6593 13.8298 12.7326 13.6587 12.7241C13.4963 12.716 13.3105 12.7144 13.1247 12.7144C12.939 12.7144 12.6372 12.784 12.3818 13.063C12.1265 13.3419 11.4069 14.0158 11.4069 15.387C11.4069 16.7583 12.4051 18.083 12.5444 18.2689C12.6836 18.4549 14.5089 21.2687 17.3034 22.4753C17.968 22.7626 18.4869 22.9339 18.8916 23.0622C19.559 23.2743 20.1661 23.2443 20.6463 23.1727C21.1815 23.0926 22.2943 22.4987 22.5267 21.848C22.7588 21.1972 22.7588 20.6395 22.689 20.5232C22.6195 20.407 22.4337 20.3373 22.1552 20.1978Z" fill="#FFFAF0"/>
</g>
<defs>
<clipPath id="clip0_21_2849">
<rect width="24" height="24" fill="white" transform="translate(5 5.97632)"/>
</clipPath>
</defs>
</svg>
