<svg width="24" height="25" viewBox="0 0 24 25" fill="none" xmlns="http://www.w3.org/2000/svg">
<path d="M17.92 12.12C17.8724 11.9973 17.801 11.8851 17.71 11.79L12.71 6.79C12.6168 6.69676 12.5061 6.6228 12.3842 6.57234C12.2624 6.52188 12.1319 6.49591 12 6.49591C11.7337 6.49591 11.4783 6.6017 11.29 6.79C11.1968 6.88324 11.1228 6.99393 11.0723 7.11575C11.0219 7.23758 10.9959 7.36814 10.9959 7.5C10.9959 7.7663 11.1017 8.0217 11.29 8.21L14.59 11.5H7C6.73478 11.5 6.48043 11.6054 6.29289 11.7929C6.10536 11.9804 6 12.2348 6 12.5C6 12.7652 6.10536 13.0196 6.29289 13.2071C6.48043 13.3946 6.73478 13.5 7 13.5H14.59L11.29 16.79C11.1963 16.883 11.1219 16.9936 11.0711 17.1154C11.0203 17.2373 10.9942 17.368 10.9942 17.5C10.9942 17.632 11.0203 17.7627 11.0711 17.8846C11.1219 18.0064 11.1963 18.117 11.29 18.21C11.383 18.3037 11.4936 18.3781 11.6154 18.4289C11.7373 18.4797 11.868 18.5058 12 18.5058C12.132 18.5058 12.2627 18.4797 12.3846 18.4289C12.5064 18.3781 12.617 18.3037 12.71 18.21L17.71 13.21C17.801 13.1149 17.8724 13.0028 17.92 12.88C18.02 12.6365 18.02 12.3635 17.92 12.12Z" fill="#202020"/>
</svg>
